<svg width="110" height="110" viewBox="0 0 110 110" fill="none" xmlns="http://www.w3.org/2000/svg">
<g clip-path="url(#clip0_62_2072)">
<path fill-rule="evenodd" clip-rule="evenodd" d="M44.4699 47.6279C43.6807 47.5696 42.8879 47.5182 42.2178 47.513C30.2677 47.3577 17.3656 50.4386 7.35195 56.9717C6.99054 57.2116 6.86656 57.6904 7.10593 58.0567C7.34529 58.423 7.81626 58.5156 8.17798 58.2751C18.001 51.9449 30.5572 48.9454 42.209 49.0992C42.5837 49.0979 43.0183 49.1226 43.4542 49.1451C43.0322 50.0144 42.9201 50.8649 42.9972 51.6462C43.1464 52.8246 43.7848 53.9319 44.7348 54.8867C46.0682 56.2175 47.9554 57.2329 49.8708 57.8068C51.3471 58.233 52.8383 58.3716 53.9503 58.1268C54.8761 57.9461 55.5711 57.5147 56.0036 56.8884C56.4562 56.2272 56.6146 55.2963 56.2109 54.0397C55.5684 51.8923 53.879 50.3984 51.6959 49.377C50.1017 48.6337 48.2716 48.1728 46.4928 47.8833C46.9234 47.5222 47.4315 47.1567 48.0181 46.7845C52.562 44.0663 60.1303 43.3832 68.2881 43.894C80.699 44.6826 94.4901 48.2907 101.161 52.0591C101.5 52.2507 102.015 52.135 102.231 51.7562C102.448 51.3774 102.284 50.8779 101.945 50.6864C95.105 46.8219 81.0653 43.1257 68.3723 42.3075C59.8505 41.7795 51.9199 42.5718 47.2139 45.4427C46.0479 46.1748 45.116 46.8896 44.4699 47.6279ZM45.165 49.291C44.6677 50.0305 44.4814 50.7489 44.5388 51.4337C44.65 52.2861 45.1677 53.0814 45.8291 53.7562C46.9695 54.9012 48.6358 55.7807 50.2961 56.2776C51.4503 56.6133 52.6307 56.7717 53.5397 56.6203C54.0412 56.5277 54.4445 56.3461 54.7057 56.0198C54.9148 55.6539 54.9015 55.1528 54.7401 54.5192C54.1707 52.7672 52.7399 51.6073 51.0271 50.8097C49.2547 49.9855 47.0652 49.4988 45.165 49.291Z" fill="#3A677D"/>
<path fill-rule="evenodd" clip-rule="evenodd" d="M8.19973 58.2008C11.7248 55.3028 14.4896 51.1187 16.2207 46.9109C16.3792 46.5026 16.1937 46.0422 15.8284 45.8964C15.4071 45.7177 14.9287 45.8998 14.7706 46.3074C13.1065 50.2672 10.5346 54.2452 7.18248 56.9714C6.86746 57.261 6.80995 57.7545 7.0709 58.0831C7.38854 58.4433 7.88472 58.4905 8.19973 58.2008Z" fill="#3A677D"/>
<path fill-rule="evenodd" clip-rule="evenodd" d="M8.06772 58.3859C12.1628 56.8462 16.9615 58.0019 20.888 59.6365C21.2533 59.7824 21.7317 59.5996 21.8901 59.1914C22.0483 58.7837 21.8621 58.3237 21.4405 58.1456C17.2083 56.3916 11.9665 55.2273 7.49424 56.9038C7.10126 57.0681 6.9107 57.5327 7.05537 57.9339C7.19971 58.3357 7.67506 58.5497 8.06772 58.3859Z" fill="#3A677D"/>
</g>
<defs>
<clipPath id="clip0_62_2072">
<rect width="80" height="80" fill="white" transform="translate(39.6855) rotate(29.7405)"/>
</clipPath>
</defs>
</svg>
