<svg width="254" height="901" viewBox="0 0 254 901" fill="none" xmlns="http://www.w3.org/2000/svg">
<path d="M746.22 92.2327C682.075 64.0684 612.648 35.9041 543.221 15.6258C366.634 -36.1964 146.278 47.7331 176.463 204.89C185.519 249.953 214.95 293.889 208.913 340.641C202.876 386.831 140.24 405.419 104.772 439.216C33.8354 506.811 11.196 608.202 1.38561 692.132C-8.42477 777.751 33.0806 865.06 150.805 893.788C196.084 904.49 249.664 902.8 289.66 883.085C310.79 872.946 326.638 858.864 338.712 842.529C350.032 827.32 356.069 803.662 376.444 793.523C408.894 776.624 475.303 792.396 512.28 791.27C573.407 789.58 622.458 770.991 657.172 733.815C693.395 694.948 711.506 647.069 717.543 600.316C722.826 556.38 709.997 514.133 699.432 471.324C691.131 438.653 685.094 403.166 732.636 388.521C786.216 371.622 841.305 364.299 873.755 324.306C948.465 232.491 850.361 137.859 746.22 92.2327Z" fill="#3A677D" fill-opacity="0.2"/>
</svg>
