<svg width="102" height="181" viewBox="0 0 102 181" fill="none" xmlns="http://www.w3.org/2000/svg">
<path d="M26.1737 93.3699C24.5834 94.0916 23.3971 95.1078 22.7203 96.8172C22.0449 98.6266 22.0721 100.626 23.0938 102.213C23.7074 103.204 24.6209 104.192 25.629 104.778C27.8628 107.248 31.6747 108.096 34.6486 106.156C35.3417 105.646 36.0348 105.137 36.5252 104.43C37.0211 104.123 37.4143 103.618 37.7088 103.214C37.9047 102.911 38.0006 102.61 38.0965 102.308C38.7815 101.199 39.2624 99.7923 39.1433 98.3938C38.9984 95.0955 36.2565 92.0325 33.0472 91.3761C30.5407 90.9102 27.9504 91.6455 26.1737 93.3699Z" fill="#38B6FF" fill-opacity="0.4"/>
<path d="M36.2571 70.0305C35.4803 71.7413 35.1035 73.4465 35.4293 75.3423C35.647 76.6394 35.9619 77.7353 36.6768 78.8256C38.3121 81.4036 41.2349 83.064 44.3333 82.9218C44.8332 82.915 45.2318 82.8095 45.6304 82.7041C45.9304 82.7 46.229 82.596 46.5276 82.4919C47.5248 82.2783 48.5166 81.6648 49.307 80.9539C50.1974 80.2418 50.9864 79.4309 51.5727 78.4229C52.3563 77.2121 52.7359 75.7068 52.6155 74.2083C52.6086 73.7083 52.5032 73.3097 52.3964 72.8111C52.291 72.4125 52.2855 72.0125 52.1801 71.6139C51.7597 70.1195 50.8407 68.7319 49.7259 67.647C48.611 66.562 47.2002 65.7812 45.6949 65.4016C42.1871 64.8493 37.812 66.7091 36.2571 70.0305Z" fill="#38B6FF" fill-opacity="0.4"/>
<path d="M55.612 95.9694C50.6152 96.2374 47.1659 99.9847 46.9326 104.888C46.8558 106.59 46.7803 108.391 46.6035 110.093C46.4334 112.296 47.5633 114.481 49.1849 116.059C49.2903 116.457 49.4944 116.755 49.7998 117.15C50.9229 118.835 52.4404 120.115 54.447 120.588C56.3537 121.062 58.6494 120.73 60.3356 119.707C62.4177 118.379 63.4918 116.464 63.8618 114.259C64.059 114.056 64.2549 113.753 64.3522 113.552C66.8016 109.818 66.3349 104.924 63.6903 101.66C63.274 100.466 62.659 99.3738 61.6455 98.3875C60.3266 97.0053 57.8105 95.8395 55.612 95.9694Z" fill="#38B6FF" fill-opacity="0.4"/>
<path d="M76.4337 60.6828C73.9421 61.3167 71.66 62.6479 69.786 64.5736C66.8271 67.6142 64.7886 72.1423 64.8457 76.3419C64.892 79.7416 66.0328 82.7264 67.7653 85.103C69.6019 87.7783 72.2316 89.9426 75.6435 90.7963C76.5461 90.984 77.4488 91.1717 78.3501 91.2595C80.7553 91.6268 83.3523 91.3915 85.8398 90.4575C93.8023 87.6489 100.591 79.4556 97.5692 70.4959C94.547 61.5363 84.9839 56.966 76.4337 60.6828Z" fill="#38B6FF" fill-opacity="0.4"/>
<path d="M52.0393 39.2128C51.6407 39.3183 51.2421 39.4237 50.8435 39.5291C45.9549 40.3958 43.1368 46.4347 45.7964 50.7989C46.6154 52.1879 47.633 53.4741 48.7493 54.659C49.0547 55.0549 49.4601 55.4495 49.8641 55.744C50.8763 56.6303 52.0884 57.5139 53.391 57.6962C54.1937 57.8852 54.9936 57.8743 55.7949 57.9634C56.8962 58.0485 58.3892 57.5281 59.281 56.9159C60.57 56.0983 61.5535 54.8847 62.1344 53.4767C62.3262 52.874 62.518 52.2714 62.6112 51.7701C62.8058 51.3674 63.1003 50.9634 63.1948 50.562C63.8716 48.8527 64.1444 46.8488 63.5199 45.0571C62.7928 43.0668 61.5643 40.9833 59.5509 40.0106C58.7455 39.6216 57.8401 39.2339 56.9361 38.9461C55.1322 38.6707 53.8351 38.8884 52.0393 39.2128Z" fill="#38B6FF" fill-opacity="0.4"/>
<path d="M79.9276 111.64C79.8276 111.641 79.829 111.741 79.729 111.743L79.629 111.744C77.8346 112.168 76.247 113.09 75.4716 114.901C74.8839 115.809 74.5989 116.913 74.6139 118.013C74.7656 121.811 78.0048 124.667 81.7044 124.617C84.1042 124.584 86.2904 123.554 87.9698 122.031C88.463 121.525 88.8561 121.019 89.1479 120.415C89.2466 120.314 89.2466 120.314 89.3452 120.212C90.1329 119.302 90.6192 118.295 90.8028 117.092C91.1674 114.487 89.4322 111.911 86.8229 111.246C86.1202 111.056 85.319 110.966 84.5177 110.877C83.1137 110.596 81.4166 110.82 79.9276 111.64Z" fill="#38B6FF" fill-opacity="0.4"/>
<path d="M28.9007 132.036C26.6995 131.966 24.7106 132.793 23.2298 134.214C22.238 134.827 21.349 135.639 20.6654 136.849C19.7873 138.461 19.42 140.866 19.9444 142.659C20.1512 143.156 20.358 143.654 20.5634 144.051C21.0865 145.744 22.1055 147.13 23.6217 148.31C24.5325 149.097 25.5392 149.584 26.7432 149.867C27.5458 150.056 28.3471 150.146 29.147 150.135C29.847 150.125 30.5455 150.016 31.2428 149.806L31.3427 149.805C33.4385 149.476 35.5315 148.948 37.0082 147.227C38.289 145.81 39.0658 144.099 39.3399 142.195C39.8813 137.887 37.2257 133.823 32.9098 132.682C32.3071 132.49 31.7058 132.398 31.2059 132.405C30.6032 132.213 29.9019 132.123 29.202 132.132C29.2006 132.032 29.0006 132.035 28.9007 132.036Z" fill="#38B6FF" fill-opacity="0.4"/>
<path d="M59.9848 138.014C59.7861 138.116 59.6862 138.118 59.4875 138.221C57.5041 139.448 55.7383 141.972 56.0709 144.368L56.0723 144.468C56.2954 146.165 56.6144 147.56 57.732 148.845C58.851 150.23 59.959 150.815 61.567 151.393C63.3764 152.069 65.6707 151.638 67.3611 150.915C69.25 150.089 70.6349 148.97 71.7116 147.255C73.3761 144.632 73.5339 141.53 72.6945 138.641C72.0632 136.349 70.2375 134.474 67.9296 133.905C64.6217 133.35 61.3438 134.995 59.9848 138.014Z" fill="#38B6FF" fill-opacity="0.4"/>
<path d="M19.4392 24.7552C18.1434 25.0729 17.0517 25.6878 16.164 26.6C15.0737 27.3149 14.286 28.2257 13.7024 29.4338C13.0174 30.5432 12.6338 31.7485 12.5529 33.1497C12.2706 34.4537 12.3883 35.7522 12.8059 37.0467C13.329 38.7397 14.148 40.1287 15.3642 41.3122C16.8818 42.5917 17.9926 43.3766 20.0006 43.9494C23.5125 44.8016 27.0985 43.7528 29.6643 41.2176C30.6519 40.3041 31.2383 39.296 31.6219 38.0906C32.2055 36.8826 32.4891 35.6786 32.3701 34.2801C32.2578 33.3815 32.147 32.583 32.0347 31.6844C31.7171 30.3886 31.1021 29.2969 30.29 28.4078C29.8805 27.7134 29.2724 27.1216 28.4656 26.6325C27.5548 25.8448 26.4468 25.2599 25.1428 24.9776C24.9414 24.8803 24.8415 24.8817 24.6401 24.7845C22.9321 24.2077 21.1323 24.2321 19.4392 24.7552Z" fill="#38B6FF" fill-opacity="0.4"/>
<path d="M16.7475 62.0953C16.3475 62.1007 16.0489 62.2049 15.6489 62.2103C15.1503 62.3171 14.6531 62.5239 14.2559 62.7293C14.1559 62.7307 13.9559 62.7334 13.8573 62.8347C12.2629 63.2565 10.8766 64.2754 9.8944 65.5889C9.40125 66.0957 9.10808 66.5997 8.91763 67.3024C8.62583 67.9064 8.43401 68.5091 8.44354 69.209C8.25309 69.9116 8.26261 70.6116 8.47076 71.2088C8.48438 72.2087 8.79796 73.2046 9.41016 74.0963C9.61422 74.3936 9.81829 74.6908 10.0224 74.9881C10.4305 75.5826 10.9386 76.1757 11.4454 76.6688C12.2562 77.4579 12.9616 77.8483 13.6669 78.2388C13.6669 78.2388 13.6669 78.2388 13.5669 78.2401C13.6669 78.2388 13.6683 78.3387 13.7683 78.3374C14.4723 78.6278 15.1763 78.9183 15.8803 79.2087C17.0857 79.5923 18.1856 79.5774 19.3827 79.3611C20.1827 79.3502 20.8799 79.1406 21.5744 78.7311C22.6688 78.3162 23.5606 77.704 24.3496 76.8932C25.5332 75.677 26.314 74.2662 26.7908 72.5596C27.6513 69.6476 26.6065 66.3615 24.4781 64.2903C23.3632 63.2054 22.1538 62.5218 20.6485 62.1422C19.4445 61.8586 18.1433 61.7763 16.7475 62.0953Z" fill="#38B6FF" fill-opacity="0.4"/>
<path d="M78.5447 24.7506C77.7502 25.1614 77.1571 25.6696 76.6653 26.2763C75.2872 27.8952 74.4104 29.6073 74.1404 31.8112C73.6935 35.7176 75.7492 39.7901 79.2733 41.5423C82.0058 43.9053 85.5245 45.2575 89.2242 45.2072C91.9239 45.1704 94.8073 43.931 96.6813 42.0053C97.3717 41.2959 97.9594 40.3878 98.4471 39.481C98.9361 38.6743 99.3225 37.669 99.6102 36.765C100.558 32.9517 99.4054 29.0671 96.6675 26.3041C94.4364 24.0343 91.5258 23.2738 88.6152 22.5133C85.1992 21.3597 81.2118 22.3141 78.5447 24.7506Z" fill="#38B6FF" fill-opacity="0.4"/>
<path d="M35.8014 161.445C34.7097 162.06 33.8207 162.872 33.1357 163.982C32.348 164.892 31.7631 166.001 31.4808 167.304C31.3917 168.106 31.304 169.007 31.2148 169.808C31.238 171.508 31.6597 173.103 32.5801 174.59C32.5814 174.69 32.5814 174.69 32.6828 174.789C33.1923 175.482 33.7004 176.075 34.2099 176.768C34.9166 177.259 35.5234 177.75 36.2301 178.241C37.0341 178.53 37.8395 178.919 38.5435 179.209C39.6461 179.394 40.8487 179.578 41.9486 179.563C42.2486 179.559 42.5486 179.555 42.8485 179.551C43.3485 179.544 43.9471 179.436 44.4457 179.329C45.3456 179.317 46.1428 179.106 46.8359 178.596C47.2332 178.391 47.7304 178.184 48.1276 177.979C49.5166 177.16 50.7002 175.944 51.481 174.533C51.8701 173.728 52.2592 172.922 52.4483 172.12L52.4469 172.02C52.6387 171.417 52.6292 170.717 52.721 170.116C52.7197 170.016 52.7169 169.816 52.8156 169.714C52.7047 168.916 52.5938 168.117 52.4829 167.319C52.3816 167.22 52.3789 167.02 52.2775 166.921C52.0707 166.424 51.8639 165.927 51.6585 165.53C51.6571 165.43 51.5558 165.331 51.5544 165.231C51.349 164.834 51.0449 164.538 50.8395 164.141C50.7382 164.042 50.7368 163.942 50.6368 163.943C50.6355 163.843 50.5355 163.845 50.5341 163.745C49.3138 162.261 47.699 161.183 45.7937 160.809C45.2924 160.716 44.7911 160.623 44.1898 160.531C44.0898 160.532 43.8884 160.435 43.7884 160.436C40.9778 159.674 38.0822 160.014 35.8014 161.445Z" fill="#38B6FF" fill-opacity="0.4"/>
<path d="M10.6456 106.082C7.95808 107.019 5.47737 108.453 4.01018 110.873C3.61702 111.379 3.22387 111.884 2.9307 112.388C2.64162 113.192 2.25255 113.997 1.96346 114.801C1.87572 115.703 1.78798 116.604 1.60025 117.507C1.51932 118.908 1.83699 120.204 2.55326 121.394C2.76549 122.291 3.27497 122.984 3.88308 123.576C4.29394 124.371 4.90205 124.962 5.70742 125.351C6.31553 125.943 7.12226 126.432 7.92491 126.621C8.73028 127.01 9.63428 127.298 10.5356 127.386C11.3409 127.775 12.1436 127.964 13.0435 127.952C13.6462 128.144 14.2461 128.136 14.8461 128.127C15.8446 128.014 16.8418 127.8 17.8403 127.687C19.3361 127.366 20.5265 126.65 21.6128 125.635C22.4059 125.124 23.0963 124.415 23.5853 123.608C24.5703 122.494 25.2525 121.185 25.5334 119.781C25.9062 117.776 25.8789 115.776 25.4518 113.782C25.1314 112.286 24.4151 111.096 23.4002 110.009C22.584 108.82 21.5704 107.834 20.261 107.152C17.3382 105.491 13.7317 105.04 10.6456 106.082Z" fill="#38B6FF" fill-opacity="0.4"/>
<path d="M45.4211 1.19941C43.5281 1.72523 41.7432 2.84965 40.3611 4.16859C38.1885 6.19835 37.2308 9.31168 37.1703 12.2128C37.1166 15.6138 38.5627 18.9944 40.9965 21.4615C42.4154 22.8423 44.5343 24.2136 46.4409 24.6877C48.8489 25.255 50.946 25.0264 53.2389 24.4952C55.5319 23.9639 58.2031 21.8273 59.2744 19.7126C59.5635 18.9086 59.9526 18.1032 60.2416 17.2992C60.6226 15.8939 60.7048 14.5926 60.3858 13.1968C60.2736 12.2983 59.9614 11.4024 59.6491 10.5066C59.5287 9.0081 59.107 7.41373 58.2894 6.12474C57.9826 5.62887 57.5758 5.13436 57.169 4.63985C57.0677 4.54122 57.0663 4.44122 56.9663 4.44258C56.7623 4.14533 56.4596 3.94945 56.2555 3.6522C56.3569 3.75083 56.3582 3.85083 56.4582 3.84947C55.1393 2.46729 53.4245 1.39051 51.4192 1.01777C49.3126 0.546405 47.7127 0.56816 45.4211 1.19941Z" fill="#38B6FF" fill-opacity="0.4"/>
</svg>
