<svg width="30" height="30" viewBox="0 0 30 30" fill="none" xmlns="http://www.w3.org/2000/svg">
<g clip-path="url(#clip0_40_3344)">
<path fill-rule="evenodd" clip-rule="evenodd" d="M3.82039 13.269C5.15885 12.792 6.56733 12.1582 7.65349 11.2405C8.94349 10.1505 9.46812 8.74667 9.82042 7.26897C10.2727 5.37051 10.4535 3.34818 11.0019 1.44664C11.205 0.740489 11.5958 0.473561 11.7635 0.3551C12.1873 0.0558692 12.6158 -0.0241151 13.0189 0.00588493C13.4965 0.0405003 14.1527 0.221257 14.5843 1.02203C14.6458 1.13664 14.7258 1.31127 14.7796 1.5505C14.8189 1.72588 14.8442 2.27433 14.8858 2.50049C14.9896 3.05741 15.0766 3.61435 15.1581 4.17435C15.4296 6.0382 15.5858 7.62125 16.4435 9.33356C17.6073 11.6582 18.7735 13.0805 20.355 13.7105C21.8843 14.3197 23.7127 14.2051 26.0489 13.7274C26.2712 13.6736 26.4912 13.6274 26.7089 13.5897C27.7389 13.4097 28.7235 14.0859 28.9258 15.112C29.1281 16.1374 28.4735 17.1366 27.4527 17.362C27.2397 17.409 27.0296 17.4536 26.822 17.4943C23.665 18.2759 20.0104 21.0651 17.8865 23.5074C17.2319 24.2605 16.2735 26.3659 15.2958 27.7089C14.5743 28.6997 13.7635 29.3528 13.0827 29.5836C12.6266 29.739 12.242 29.7151 11.9243 29.6367C11.4627 29.5228 11.0797 29.2728 10.7858 28.8751C10.6258 28.6574 10.4773 28.3659 10.4065 27.9936C10.3727 27.8143 10.3689 27.359 10.3696 27.1528C10.1704 26.4674 9.92656 25.7982 9.74887 25.1066C9.32503 23.4566 8.49348 22.412 7.50578 21.032C6.58194 19.7405 5.58966 18.929 4.13505 18.2813C3.94582 18.2351 2.41889 17.8613 1.87966 17.6466C1.09196 17.332 0.716559 16.8051 0.580405 16.5212C0.348867 16.0397 0.325042 15.619 0.371196 15.2682C0.439657 14.7505 0.671966 14.3074 1.08427 13.9497C1.33966 13.7274 1.7212 13.5113 2.23197 13.4059C2.62659 13.3236 3.67346 13.2759 3.82039 13.269ZM12.7781 10.5797C12.8489 10.7374 12.9243 10.8959 13.0043 11.0559C14.7089 14.4605 16.615 16.3613 18.9319 17.2836L19.0096 17.3136C17.4596 18.4643 16.0565 19.7505 14.9842 20.9836C14.5427 21.4913 13.9581 22.5459 13.3266 23.6274C12.7527 21.762 11.8143 20.4436 10.6343 18.7936C9.73272 17.5344 8.78811 16.5867 7.62734 15.8144C8.52811 15.3521 9.38733 14.8105 10.1358 14.1782C11.3819 13.1251 12.2058 11.9051 12.7781 10.5797Z" fill="#3A677D"/>
</g>
<defs>
<clipPath id="clip0_40_3344">
<rect width="30" height="30" fill="white"/>
</clipPath>
</defs>
</svg>
