<svg width="349" height="24" viewBox="0 0 349 24" fill="none" xmlns="http://www.w3.org/2000/svg">
<path fill-rule="evenodd" clip-rule="evenodd" d="M101.786 3.82694C84.25 4.56634 66.8868 5.52403 49.5484 6.77867C41.4022 7.36669 37.4238 7.69858 30.0108 8.42051C29.2612 8.49329 27.5892 8.58641 26.7819 8.67665C26.1642 8.74651 25.7688 8.8455 25.5629 8.91537C24.7969 9.18027 24.764 9.46847 25.0522 9.73046C25.184 9.85564 25.5052 10.0885 26.5595 10.2078C31.1227 10.7347 35.76 11.1568 40.4385 11.4916C31.3451 11.6866 22.5729 11.8642 13.3313 12.1407C8.80106 12.2775 2.57739 12.493 1.82208 12.5337C-0.0765004 12.6327 -0.00896525 13.3081 0.0033899 13.3459C0.0206871 13.3954 0.262027 13.998 2.11612 13.9863C60.6104 13.669 119.009 12.8743 177.54 12.851C177.77 12.851 193.461 12.8685 206.731 12.9879C201.22 13.1218 194.45 13.2586 186.402 13.4099C148.942 14.1144 111.415 14.4608 74.0116 15.5466C55.8742 16.0735 56.3108 16.0735 38.437 16.8071C28.3387 17.2204 28.7835 17.1506 18.4653 17.7502C17.5551 17.8026 15.6837 17.7474 14.7011 17.7998C13.9886 17.8405 13.473 17.9337 13.1657 18.021C12.6575 18.1695 12.403 18.3499 12.3347 18.5537C12.2762 18.7283 12.3338 18.97 12.9673 19.229C13.6386 19.5056 14.7447 19.7501 16.2521 19.9276C17.9917 20.1314 20.3573 20.2624 23.0589 20.3323C32.8689 20.5885 47.4316 20.0733 50.8004 20.0616C75.9637 19.9655 101.086 19.395 126.249 19.1737C126.241 19.2232 126.241 19.2698 126.257 19.3164C126.315 19.5056 126.554 19.7239 127.213 19.9131C127.897 20.1053 129.906 20.341 132.6 20.5215C135.104 20.6903 138.283 20.8534 141.265 21.0077C137.583 21.1241 133.753 21.2667 131.298 21.4181C130.236 21.4851 127.468 21.587 127.089 21.6393C125.837 21.814 125.747 22.1749 125.755 22.335C125.755 22.4253 125.854 23.0017 127.855 23.0715C145.087 23.677 162.631 23.2492 179.772 23.9944C180.9 24.0439 181.93 23.7614 182.07 23.3626C182.21 22.9638 181.411 22.5999 180.282 22.5505C171.403 22.1633 162.417 22.0906 153.414 22.0265C154.394 21.8461 154.724 21.5694 154.798 21.3831C154.88 21.159 154.781 20.8533 153.793 20.5884C153.307 20.4575 152.154 20.2741 150.086 20.0819C147.36 19.8287 141.421 19.5638 136.479 19.2843C138.102 19.2115 139.725 19.1446 141.355 19.0835C153.587 19.0398 168.117 19.0282 179.343 19.0136C188.445 19.0049 197.786 18.967 199.795 18.9146C200.496 18.8972 200.891 18.8332 200.998 18.8157C201.434 18.7342 201.665 18.6293 201.805 18.5478C202.225 18.3033 202.233 18.0588 201.846 17.8114C201.78 17.7707 201.344 17.4708 199.952 17.4242C180.472 16.8013 160.605 16.8944 141.117 17.6309C138.275 17.6396 135.565 17.6541 133.053 17.6687C105.608 17.8317 78.2041 18.5013 50.7592 18.6061C47.5221 18.6178 33.8326 19.1068 24.1709 18.9001C29.5907 18.6003 30.9168 18.5798 38.9147 18.2538C56.7144 17.5232 56.2778 17.5203 74.3493 16.9963C111.711 15.9134 149.205 15.567 186.617 14.8625C208.559 14.4492 221.219 14.1202 224.761 13.7156C226.367 13.5322 226.96 13.2033 227.117 13.0024C227.314 12.7637 227.24 12.5105 226.697 12.2601C226.548 12.1932 226.293 12.0971 225.848 12.0214C228.566 12.0156 231.285 12.0126 234.003 12.0097C258.021 11.9864 282.056 11.9195 306.066 11.9952C307.532 11.9981 308.999 12.0039 310.473 12.0126C322.408 12.1262 334.36 12.231 346.303 12.3096L346.377 12.3125C351.171 12.33 348.263 10.8745 346.509 10.857C346.328 10.8541 345.076 10.8453 344.598 10.8395C341.188 10.8046 337.778 10.7464 334.368 10.7173C326.428 10.6503 318.463 10.5892 310.514 10.5571C250.559 9.98076 190.578 9.14825 130.607 9.85853C107.585 10.1322 84.5711 10.5397 61.5741 11.0317C52.3818 10.7871 43.2802 10.3301 34.401 9.50631C39.7878 8.9998 43.6344 8.69124 50.3803 8.2051C69.6873 6.80782 89.0355 5.78308 108.623 5.01167C155.185 3.18647 202.192 3.43394 248.697 1.47774C249.529 1.44281 249.9 1.36131 249.966 1.34385C250.921 1.12552 250.962 0.837292 250.896 0.645166C250.872 0.563658 250.616 0.0396885 248.911 0.00184544C248.31 -0.0127096 244.01 0.062985 242.346 0.083362C239.151 0.124116 235.947 0.182319 232.751 0.211429C220.231 0.327869 207.983 0.525846 195.463 0.749993C148.53 1.58545 101.284 2.71494 54.2516 2.66254C53.1149 2.66254 52.1924 2.98857 52.1841 3.39029C52.1841 3.7891 53.1066 4.11804 54.2351 4.11804C70.0744 4.13551 85.9303 4.02198 101.786 3.82694Z" fill="#3A677D"/>
</svg>
