<svg width="267" height="25" viewBox="0 0 267 25" fill="none" xmlns="http://www.w3.org/2000/svg">
<path fill-rule="evenodd" clip-rule="evenodd" d="M71.1276 14.7224C59.6626 16.9816 46.4256 19.23 33.6916 19.7914C22.8076 20.2705 12.2947 19.5263 3.68966 16.3597C2.47666 15.9139 0.95766 16.2204 0.30166 17.0455C-0.35534 17.8699 0.0966552 18.9024 1.30966 19.3489C10.6967 22.8023 22.1426 23.7056 34.0146 23.1822C46.9776 22.6113 60.4536 20.348 72.1486 18.0562C73.5056 19.9246 76.3156 21.6666 81.2656 22.9518C88.8686 24.9262 99.2496 24.9018 110.186 23.7891C126.047 22.1763 143.109 18.3301 154.079 15.5971C154.529 15.4857 155.199 15.3083 156.019 15.0745C156.269 15.4497 156.549 15.8194 156.859 16.1823C159.549 19.3455 164.309 21.9031 169.159 22.8166C199.919 28.6087 235.819 21.6686 265.049 16.0206C266.369 15.7643 267.139 14.8237 266.769 13.9218C266.389 13.0199 265.009 12.4958 263.679 12.7521C235.269 18.2424 200.389 25.1696 170.489 19.5412C166.809 18.848 163.229 16.8824 161.189 14.4818C160.959 14.214 160.759 13.9401 160.569 13.6621C164.599 12.3048 169.339 10.4127 171.889 8.38725C174.509 6.31087 175.159 4.09448 172.879 2.00111C170.919 0.211545 167.949 0.0592968 164.859 0.987042C161.529 1.98071 158.099 4.30378 156.989 5.39397C154.909 7.43025 154.249 9.63919 154.629 11.7931C153.649 12.0744 152.853 12.2838 152.362 12.4061C141.632 15.0785 124.955 18.8507 109.446 20.4282C99.4666 21.4437 89.9876 21.5789 83.0496 19.7778C80.0906 19.0091 78.1356 18.1119 77.0746 17.0707C79.1686 16.6452 81.1877 16.2265 83.1167 15.8269C86.9317 15.0364 94.8746 13.7281 100.55 11.3961C105.063 9.54201 108.123 7.01976 107.945 3.85795C107.854 2.23355 106.471 1.14946 104.27 0.54184C100.981 -0.365515 95.2926 0.0735406 93.1746 0.379391C86.7506 1.3051 78.1767 5.13708 73.9347 9.455C72.2417 11.178 71.2346 12.9804 71.1276 14.7224ZM76.4046 13.6608C78.2196 13.2897 79.9737 12.9254 81.6587 12.576C85.2197 11.8379 92.6636 10.6655 97.9626 8.48781C100.769 7.3351 103.06 5.95403 102.949 3.98776C102.94 3.83483 102.717 3.79134 102.52 3.72882C102.215 3.63298 101.866 3.56704 101.494 3.51538C98.9766 3.16603 95.5956 3.50381 94.2116 3.70363C88.8216 4.48049 81.6516 7.71912 78.0926 11.3424C77.3406 12.1077 76.7416 12.8873 76.4046 13.6608ZM159.569 10.2285C161.919 9.40674 164.379 8.41305 166.319 7.3317C167.349 6.75739 168.219 6.16678 168.769 5.55372C169.229 5.04669 169.409 4.52739 168.859 4.0258C168.639 3.82258 168.309 3.81852 167.969 3.85658C167.609 3.89736 167.239 3.98434 166.869 4.09648C164.429 4.82645 161.909 6.53174 161.099 7.3317C160.149 8.25945 159.679 9.2409 159.569 10.2285Z" fill="#3A677D"/>
</svg>
