<svg width="500" height="800" viewBox="0 0 500 800" fill="none" xmlns="http://www.w3.org/2000/svg">
<path d="M662.496 116.931C609.56 82.8563 547.549 58.6252 487.807 38.1805C425.796 16.2213 359.248 -2.70902 293.456 0.319834C166.41 6.37754 82.4687 94.2144 35.5825 206.282C-6.01006 306.234 -30.2093 471.307 74.1502 543.999C123.305 578.074 194.391 577.316 251.108 572.016C313.875 566.715 378.154 552.328 435.627 524.311C480.245 502.352 521.081 465.249 528.643 414.516C537.718 356.967 502.932 303.962 466.633 262.316C427.309 217.64 371.348 182.051 310.85 182.808C255.645 182.808 198.172 210.825 169.435 258.53C140.698 306.234 145.992 381.955 201.953 408.458C249.595 430.417 301.019 389.528 292.7 339.551C289.675 318.35 254.889 314.563 246.57 333.494C241.277 344.095 242.033 319.864 245.058 313.806C249.595 303.205 258.67 295.633 268.501 290.333C295.725 275.188 325.974 279.732 353.199 292.604C383.448 306.991 408.403 331.979 427.309 359.239C452.264 394.828 446.971 417.544 410.672 439.503C343.367 479.636 246.57 489.48 170.191 479.636C82.4687 467.521 94.5684 355.453 114.23 291.09C133.136 228.998 170.191 155.549 230.689 125.26C302.531 88.9138 391.766 132.075 458.314 163.878C516.544 191.895 606.535 228.998 636.028 290.333C664.765 350.152 658.715 441.775 641.321 503.11C620.903 576.559 555.112 616.692 485.539 635.622C442.434 646.98 397.816 650.009 353.199 649.252C328.999 649.252 304.8 647.737 280.601 646.98C246.57 646.223 225.396 650.766 194.391 665.91C152.798 685.598 164.141 740.117 194.391 762.834C249.595 804.48 337.318 801.452 404.622 798.423C471.926 796.151 536.962 783.278 598.973 755.261C721.482 699.228 788.03 589.432 798.617 457.677C806.936 325.164 779.711 193.409 662.496 116.931Z" fill="#3A677D" fill-opacity="0.2"/>
</svg>
