<svg width="61" height="285" viewBox="0 0 61 285" fill="none" xmlns="http://www.w3.org/2000/svg">
<path d="M60.7426 203.645C60.5426 198.445 59.5426 193.345 59.4426 188.245C59.4426 186.945 57.2426 186.445 57.0426 187.945C54.8426 200.845 50.4425 213.145 45.6425 225.245C43.8425 229.745 41.9425 234.145 40.1425 238.645C37.7425 236.345 36.5426 232.645 35.2426 229.645C34.5426 227.945 33.7426 226.245 32.9426 224.545C33.9426 224.245 34.7425 223.345 34.6425 222.345C32.7425 206.845 34.9426 191.645 38.4426 176.545C39.0426 176.845 39.6426 177.045 40.3426 177.145C43.4426 177.745 45.6425 175.645 47.1425 173.145C50.3425 168.045 51.3425 161.945 51.6425 156.045C52.1425 146.445 51.1426 136.745 49.5426 127.145C50.3426 121.045 50.1425 114.945 45.6425 110.145C43.5425 107.945 39.9425 110.245 40.6425 113.045C41.6425 116.745 42.5426 120.545 43.2426 124.345C43.0426 126.745 42.6426 129.045 42.2426 131.345C40.9426 138.845 39.2426 146.145 37.5426 153.545C36.7426 157.045 35.8425 160.645 35.1425 164.145C34.1425 160.545 34.0425 156.545 33.6425 152.945C33.0425 146.645 31.6426 140.345 30.4426 134.145C29.4426 128.945 28.2426 123.745 27.0426 118.545C27.0426 118.445 27.0426 118.245 27.0426 118.145C26.7426 114.045 27.0425 110.245 27.6425 106.145C28.2425 102.245 29.1426 98.2455 30.0426 94.4455C30.6426 91.8455 31.3425 89.2454 32.1425 86.5454C32.4425 86.5454 32.6426 86.4455 32.9426 86.4455C34.8426 85.7455 36.4426 84.1455 37.9426 82.7455C38.3426 82.4454 38.7425 82.0454 39.1425 81.6454C39.3425 81.4454 39.5425 81.2455 39.6425 80.9455C42.9425 78.4455 45.5426 75.4454 47.3426 71.6454C49.5426 66.9454 50.7426 61.8455 51.0426 56.7455C51.7426 44.9455 47.5425 34.1455 43.6425 23.2455C43.3425 22.4455 43.0426 21.7455 42.8426 20.9455C42.0426 14.3455 40.2426 7.94545 37.5426 1.74545C36.8426 0.145455 34.5425 -0.354545 33.1425 0.245455C31.4425 1.04545 30.8426 2.64547 31.0426 4.44547C31.8426 9.84547 33.6426 15.3455 35.5426 20.7455C36.6426 29.5455 35.9425 38.5454 34.6425 47.1454C32.2425 62.3454 27.2426 76.9455 24.3426 91.9455C23.7426 95.2455 23.2426 98.6455 22.7426 101.945C22.2426 100.245 21.7426 98.6455 21.2426 96.9455C19.2426 90.2455 17.0426 83.6454 14.5426 77.0454C12.6426 71.9454 10.1426 66.4455 4.8426 63.9455C2.1426 62.7455 -0.357446 64.7454 0.042554 67.6454C1.64255 77.0454 4.2426 86.2454 7.8426 95.0454C11.1426 103.045 15.0426 111.045 20.2426 118.045C22.0426 125.345 23.6426 132.745 25.0426 140.145C26.2426 146.545 27.1426 153.045 28.4426 159.545C29.3426 163.945 30.6426 168.545 33.3426 172.245C31.6426 180.745 30.3426 189.245 29.5426 197.845C28.9426 204.345 28.9426 210.845 29.4426 217.345C27.2426 212.845 25.0426 208.345 22.8426 203.945C18.0426 194.445 12.4426 185.245 6.54255 176.345C5.14255 174.245 1.44255 174.845 1.54255 177.745C1.64255 180.245 1.8426 182.745 2.3426 185.245C2.8426 187.645 3.14263 190.145 3.74263 192.645C4.94263 197.345 6.8426 201.845 9.3426 205.945C13.6426 212.945 19.8426 218.645 27.0426 222.445C28.9426 226.145 30.7426 229.945 32.5426 233.745C33.9426 236.845 35.7426 240.245 38.5426 242.345C36.0426 248.845 33.8426 255.445 32.2426 262.145C30.6426 269.245 30.1426 276.345 30.9426 283.545C31.0426 284.445 32.3426 284.445 32.3426 283.545C32.5426 270.645 36.1426 258.045 40.9426 246.145C41.2426 245.345 41.6426 244.545 41.9426 243.645C44.6426 244.045 47.3426 242.945 49.4426 240.945C55.5426 235.245 58.7426 226.345 59.8426 218.245C60.8426 213.345 60.9426 208.545 60.7426 203.645ZM56.4426 207.945C56.4426 207.545 56.5425 207.245 56.6425 206.845C56.7425 206.945 56.9425 207.045 57.1425 207.045C56.7425 207.245 56.5426 207.545 56.4426 207.945Z" fill="#38B6FF" fill-opacity="0.2"/>
</svg>
